<?xml version="1.0" encoding="utf-8"?>
<!-- Generator: Adobe Illustrator 26.0.2, SVG Export Plug-In . SVG Version: 6.00 Build 0)  -->
<svg version="1.1" id="图层_1" xmlns="http://www.w3.org/2000/svg" xmlns:xlink="http://www.w3.org/1999/xlink" x="0px" y="0px"
	 viewBox="0 0 388.7 43.6" style="enable-background:new 0 0 388.7 43.6;" xml:space="preserve">
<g>
	<path d="M33.9,0.6v5.7c0,0.3-0.3,0.6-0.6,0.6H20.2v36.1c0,0.3-0.3,0.6-0.6,0.6h-5.4c-0.3,0-0.6-0.3-0.6-0.6V6.8H0.6
		C0.3,6.8,0,6.5,0,6.2V0.6C0,0.3,0.3,0,0.6,0h32.7C33.6,0,33.9,0.3,33.9,0.6z"/>
</g>
<g>
	<path d="M134.9,0.6V43c0,0.3-0.3,0.6-0.6,0.6h-32.7c-0.3,0-0.6-0.3-0.6-0.6V0.6c0-0.3,0.3-0.6,0.6-0.6h5.5c0.3,0,0.6,0.3,0.6,0.6
		v36.1h20.8V0.6c0-0.3,0.3-0.6,0.6-0.6h5.4C134.7,0,134.9,0.3,134.9,0.6z"/>
</g>
<g>
	<path d="M185.5,0.6v5.7c0,0.3-0.3,0.6-0.6,0.6h-13v36.1c0,0.3-0.3,0.6-0.6,0.6h-5.4c-0.3,0-0.6-0.3-0.6-0.6V6.8h-13
		c-0.3,0-0.6-0.3-0.6-0.6V0.9c-0.1-0.1-0.1-0.2-0.1-0.3c0-0.3,0.3-0.6,0.6-0.6h32.7C185.2,0,185.5,0.3,185.5,0.6z"/>
</g>
<g>
	<path d="M236.1,0.6V43c0,0.3-0.3,0.6-0.6,0.6h-5.4c-0.3,0-0.6-0.3-0.6-0.6V25.3h-20.8V43c0,0.3-0.3,0.6-0.6,0.6h-5.4
		c-0.3,0-0.6-0.3-0.6-0.6V0.9c-0.1-0.1-0.1-0.2-0.1-0.3c0-0.3,0.3-0.6,0.6-0.6h5.4c0.3,0,0.6,0.3,0.6,0.6v17.8h20.9V0.6
		c0-0.3,0.3-0.6,0.6-0.6h5.4C235.8,0,236.1,0.3,236.1,0.6z"/>
</g>
<g>
	<path d="M286,0.7C285.9,0.6,286,0.6,286,0.7L286,0.7z"/>
	<path d="M286,0.7C286,0.6,285.9,0.6,286,0.7L286,0.7z"/>
	<path d="M286,6.9c0.3,0,0.6-0.4,0.6-0.7V0.7c0-0.1,0-0.2-0.1-0.3c-0.1-0.2-0.2-0.3-0.4-0.4c-0.1,0-0.3,0-0.4,0.1L253.2,0
		c0,0,0,0,0,0c-0.2,0-0.3,0.1-0.4,0.2c-0.1,0.1-0.2,0.3-0.2,0.4V43c0,0.3,0.3,0.6,0.6,0.6h32.7c0.3,0,0.6-0.3,0.6-0.6v-5.6
		c0-0.3-0.3-0.6-0.6-0.6h-26.7V25.3h25.4c0.3,0,0.6-0.3,0.6-0.6V19c0-0.3-0.3-0.6-0.6-0.6h-25.4V6.9H286z M286,0.7
		C285.9,0.6,286,0.6,286,0.7L286,0.7z"/>
</g>
<g>
	<path d="M380.5,6.2C380.4,6.1,380.4,6.2,380.5,6.2L380.5,6.2z M380.5,6.2C380.4,6.1,380.4,6.2,380.5,6.2L380.5,6.2z M380.5,6.2
		C380.4,6.1,380.4,6.2,380.5,6.2L380.5,6.2z"/>
	<path d="M388.7,42.7c-0.3-0.8-1.9-5-5.7-14.9h3.1c0.3,0,0.6-0.3,0.6-0.6V0.6c0-0.3-0.3-0.6-0.6-0.6h-32.7c-0.3,0-0.6,0.3-0.6,0.6
		V43c0,0.3,0.3,0.6,0.6,0.6h5.5c0.3,0,0.6-0.3,0.6-0.6V27.8h16.3c0.6,1.6,2.2,5.3,3.8,8.8c0.6,1.5,2.6,6.4,2.9,6.7
		c0.1,0.1,0.3,0.2,0.4,0.2h5.4c0.2,0,0.4-0.1,0.5-0.3C388.7,43.1,388.7,42.9,388.7,42.7z M380.5,6.2C380.4,6.2,380.4,6.1,380.5,6.2
		L380.5,6.2z M379.9,6.8V21h-20.8V6.8H379.9z"/>
</g>
<g>
	<path d="M85.4,42.7c-0.3-0.8-1.9-5-5.7-14.9h3.1c0.3,0,0.6-0.3,0.6-0.6V0.6c0-0.3-0.3-0.6-0.6-0.6H50c-0.3,0-0.6,0.3-0.6,0.6V43
		c0,0.3,0.3,0.6,0.6,0.6h5.4c0.3,0,0.6-0.3,0.6-0.6V27.8h16.4c0.6,1.5,2.1,5.1,3.8,8.8c0.6,1.5,2.6,6.4,2.9,6.7
		c0.1,0.1,0.3,0.2,0.4,0.2h5.4c0.2,0,0.4-0.1,0.5-0.3C85.5,43.1,85.5,42.9,85.4,42.7z M76.7,6.8V21H56.1V6.8H76.7z M77.3,6.2
		C77.2,6.2,77.2,6.1,77.3,6.2L77.3,6.2z"/>
	<path d="M77.3,6.2C77.2,6.1,77.2,6.2,77.3,6.2L77.3,6.2z M77.3,6.2C77.2,6.1,77.2,6.2,77.3,6.2L77.3,6.2z M77.3,6.2
		C77.2,6.1,77.2,6.2,77.3,6.2L77.3,6.2z"/>
</g>
<g>
	<path d="M339.9,42.7l-3.4-10.9h0l-8.3-26.3l-1.7-5.1C326.5,0.2,326.3,0,326,0h-11.7c-0.3,0-0.5,0.2-0.6,0.4l-1.5,4.7
		c-1,2.9-1.7,5.4-2.5,7.8l-0.9,3c-0.3,1-3.3,10.2-8.6,26.9c0,0.2,0,0.4,0.1,0.5c0.1,0.2,0.3,0.2,0.5,0.2h6c0.3,0,0.5-0.2,0.6-0.4
		l4.3-13.9h16.8l4.3,13.8c0.1,0.2,0.3,0.4,0.5,0.4h6c0.2,0,0.4-0.1,0.5-0.2C340,43,340,42.8,339.9,42.7z M326.5,22.5h-12.6l2.6-8.3
		l0.9-3c0.5-1.8,0.9-3.2,1.3-4.4h2.9c0.8,2.3,1.8,5.5,2.8,8.7C325.1,17.9,325.8,20.4,326.5,22.5z"/>
</g>
</svg>
