<svg width="201" height="120" viewBox="0 0 201 120" fill="none" xmlns="http://www.w3.org/2000/svg">
<path d="M86.2402 40.4839C94.2258 18.3758 115.403 2.57124 140.261 2.57124C155.388 2.57124 169.15 8.42175 179.408 17.9831C179.211 18.3967 179.1 18.8598 179.1 19.3486C179.1 21.1024 180.522 22.5241 182.276 22.5241C182.727 22.5241 183.157 22.4297 183.546 22.2596C192.354 32.3528 197.69 45.5541 197.69 60C197.69 91.7134 171.975 117.429 140.261 117.429C115.202 117.429 93.8862 101.373 86.0517 78.9882L83.6248 79.8376C91.8091 103.221 114.076 120 140.261 120C173.395 120 200.261 93.1334 200.261 60C200.261 44.8014 194.608 30.9215 185.29 20.3484C185.395 20.0341 185.451 19.6979 185.451 19.3486C185.451 17.5948 184.029 16.1731 182.276 16.1731C181.963 16.1731 181.66 16.2184 181.375 16.3026C170.636 6.1944 156.171 0 140.261 0C114.286 0 92.1637 16.516 83.8219 39.6104L86.2402 40.4839Z" fill="white"/>
<path d="M30.3921 72.9719V46.8738C30.3921 45.5239 30.7006 44.4954 31.3177 43.8269C31.9348 43.1455 32.7319 42.8112 33.709 42.8112C34.7118 42.8112 35.5346 43.1455 36.1645 43.814C36.7945 44.4825 37.103 45.511 37.103 46.8738V72.9719C37.103 74.3475 36.7945 75.3632 36.1645 76.0446C35.5346 76.7259 34.7246 77.0602 33.709 77.0602C32.7448 77.0602 31.9477 76.7131 31.3306 76.0317C30.7006 75.3503 30.3921 74.3218 30.3921 72.9719Z" fill="white"/>
<path d="M39.7258 72.9719V46.8738C39.7258 45.5239 40.0344 44.4954 40.6515 43.8269C41.2686 43.1455 42.0657 42.8112 43.0427 42.8112C44.0455 42.8112 44.8683 43.1455 45.4983 43.814C46.1282 44.4825 46.4368 45.511 46.4368 46.8738V72.9719C46.4368 74.3475 46.1282 75.3632 45.4983 76.0446C44.8683 76.7259 44.0584 77.0602 43.0427 77.0602C42.0785 77.0602 41.2814 76.7131 40.6643 76.0317C40.0344 75.3503 39.7258 74.3218 39.7258 72.9719Z" fill="white"/>
<path d="M79.7214 63.304V69.655C79.7214 70.5035 79.6442 71.172 79.4771 71.6734C79.31 72.1748 79.0014 72.6376 78.5643 73.0362C78.1143 73.4476 77.5487 73.8333 76.8544 74.2061C74.8489 75.286 72.9204 76.0831 71.0691 76.5845C69.2178 77.0859 67.1994 77.3302 65.0138 77.3302C62.4683 77.3302 60.1413 76.9445 58.0586 76.1602C55.9631 75.376 54.176 74.2447 52.6976 72.7533C51.2191 71.262 50.0878 69.4493 49.2907 67.328C48.4936 65.2067 48.1079 62.8283 48.1079 60.2057C48.1079 57.6344 48.4936 55.2689 49.265 53.1347C50.0363 51.0006 51.1677 49.175 52.659 47.6837C54.1503 46.1924 55.9631 45.0482 58.1101 44.264C60.2442 43.4669 62.674 43.0812 65.3867 43.0812C67.6108 43.0812 69.5907 43.3769 71.3134 43.9683C73.0361 44.5596 74.4246 45.3182 75.4917 46.2181C76.5587 47.118 77.3687 48.0822 77.9086 49.085C78.4486 50.1007 78.7186 50.9878 78.7186 51.772C78.7186 52.6205 78.41 53.3404 77.7801 53.9318C77.1501 54.5232 76.4045 54.8189 75.5302 54.8189C75.0417 54.8189 74.5789 54.7032 74.1418 54.4846C73.6918 54.2532 73.319 53.9447 73.0233 53.5333C72.2005 52.2348 71.4934 51.2577 70.9277 50.5892C70.3492 49.9207 69.5778 49.3679 68.6136 48.9179C67.6494 48.4679 66.4023 48.2365 64.8981 48.2365C63.3425 48.2365 61.9541 48.5065 60.7456 49.0336C59.5242 49.5736 58.4829 50.3449 57.6215 51.3606C56.7601 52.3762 56.0916 53.6233 55.6288 55.1017C55.166 56.5802 54.9346 58.2129 54.9346 60C54.9346 63.8825 55.8216 66.8781 57.6087 68.9736C59.3957 71.0692 61.8769 72.1105 65.0781 72.1105C66.6337 72.1105 68.0865 71.9048 69.4492 71.5063C70.812 71.0949 72.2005 70.5164 73.6018 69.7707V64.3968H68.3822C67.1351 64.3968 66.1838 64.204 65.541 63.8311C64.8981 63.4583 64.5767 62.8155 64.5767 61.9155C64.5767 61.1827 64.8467 60.5656 65.3738 60.09C65.9138 59.6143 66.6337 59.37 67.5594 59.37H75.1703C76.1088 59.37 76.893 59.4471 77.5487 59.6143C78.1915 59.7814 78.7186 60.1542 79.1171 60.7199C79.5285 61.2984 79.7214 62.1598 79.7214 63.304Z" fill="white"/>
<path d="M165.048 48.905H157.72V72.9719C157.72 74.3604 157.412 75.3889 156.794 76.0574C156.177 76.7259 155.38 77.0602 154.403 77.0602C153.413 77.0602 152.603 76.7259 151.973 76.0445C151.343 75.3632 151.035 74.3475 151.035 72.9719V48.905H143.707C142.563 48.905 141.714 48.6479 141.148 48.1465C140.596 47.6451 140.313 46.9766 140.313 46.141C140.313 45.2796 140.608 44.5982 141.187 44.1097C141.766 43.6083 142.601 43.364 143.707 43.364H165.035C166.192 43.364 167.054 43.6211 167.619 44.1354C168.185 44.6496 168.468 45.3182 168.468 46.141C168.468 46.9638 168.185 47.6323 167.607 48.1465C167.054 48.6479 166.192 48.905 165.048 48.905Z" fill="white"/>
<path d="M2.45554 68.7679L19.4772 48.4037H4.85965C3.83115 48.4037 3.05978 48.1722 2.54553 47.7223C2.03128 47.2723 1.7613 46.6809 1.7613 45.9353C1.7613 45.1639 2.01843 44.5468 2.54553 44.0711C3.07264 43.5954 3.83115 43.364 4.85965 43.364H23.7069C26.1496 43.364 27.3709 44.4954 27.3709 46.7709C27.3709 47.8508 27.1652 48.7251 26.7667 49.3679C26.3553 50.0107 25.5325 51.0649 24.2983 52.5048L8.38226 71.442H25.9181C26.9595 71.442 27.7309 71.6606 28.2451 72.0848C28.7594 72.5091 29.0165 73.1133 29.0165 73.8847C29.0165 74.6818 28.7594 75.3117 28.2451 75.7874C27.7309 76.2502 26.9595 76.4817 25.9181 76.4817H4.40968C2.94407 76.4817 1.8513 76.1602 1.10564 75.5046C0.372831 74.8489 0 73.9747 0 72.869C0 72.4962 0.0642803 72.1491 0.179986 71.8277C0.295692 71.5063 0.462822 71.2106 0.668521 70.9406C0.874221 70.6578 1.15706 70.3107 1.51703 69.8735C1.87701 69.4364 2.18556 69.0765 2.45554 68.7679Z" fill="white"/>
<path d="M139.708 76.4945C139.696 76.4431 139.67 76.3788 139.657 76.3145C139.606 76.1474 139.554 75.9931 139.516 75.8517C139.49 75.7617 139.477 75.7231 139.477 75.6974V75.6203L139.438 75.5175C138.423 72.3548 137.381 69.1922 136.366 66.1324C135.35 63.0726 134.322 59.8843 133.306 56.6445L133.293 56.6188L133.28 56.5931C133.19 56.3617 133.062 55.9246 132.908 55.3075C132.74 54.6518 132.56 53.9833 132.355 53.3147C132.136 52.6205 131.892 52.0034 131.622 51.4635C131.236 50.7178 130.748 50.345 130.143 50.345C129.719 50.345 129.372 50.4735 129.128 50.7049C128.986 50.8464 128.832 51.0521 128.665 51.3092C128.472 51.6434 128.318 51.9906 128.202 52.3634C128.112 52.6848 128.022 52.9805 127.945 53.2505L126.981 56.4774C126.775 57.223 126.531 57.943 126.274 58.6372C126.004 59.3572 125.759 60.09 125.541 60.8228C125.245 61.6842 124.975 62.5198 124.731 63.3426C124.487 64.1397 124.23 64.9753 123.934 65.8239L123.921 65.8496L123.754 66.5438V66.5567C123.741 66.6338 123.702 66.7881 123.612 67.0709C123.535 67.328 123.445 67.598 123.368 67.868C123.291 68.1251 123.214 68.3694 123.137 68.5879C123.06 68.7936 123.021 68.9351 122.983 69.0251C122.931 69.1408 122.854 69.3593 122.687 69.8864C122.545 70.3235 122.391 70.8121 122.224 71.3777C122.044 71.9434 121.864 72.5605 121.658 73.2162C121.465 73.859 121.273 74.4504 121.08 74.9903C120.9 75.5174 120.733 75.9674 120.578 76.3402C120.553 76.4045 120.527 76.456 120.514 76.5074H116.644C116.323 76.5074 115.963 76.4945 115.577 76.4817C115.179 76.4688 114.78 76.456 114.382 76.4431C114.047 76.4302 113.726 76.4174 113.456 76.4045L114.575 72.7662L114.742 72.4448L114.755 72.3805C114.947 71.7377 115.102 71.1849 115.23 70.7607C115.359 70.3107 115.5 69.8479 115.654 69.3722C115.796 68.9094 115.924 68.5237 116.027 68.2408V68.228V68.2151C116.644 66.2095 117.249 64.1654 117.827 62.147C118.393 60.1543 119.036 58.1358 119.73 56.1431C119.756 56.0788 119.807 55.976 119.897 55.8346C120.077 55.5646 120.141 55.2818 120.116 54.9732L121.273 51.322L121.208 51.2063C121.221 51.1292 121.26 50.9621 121.363 50.6792C121.53 50.1907 121.735 49.6507 121.967 49.0851C122.211 48.5194 122.443 47.9923 122.661 47.5166C122.893 47.0152 122.983 46.8352 123.021 46.7838C123.291 46.4752 123.522 46.2181 123.741 46.0124C123.972 45.7939 124.191 45.601 124.422 45.4339C124.641 45.2668 124.885 45.0996 125.117 44.9582C125.361 44.8168 125.644 44.6368 125.952 44.4568C126.094 44.4054 126.209 44.3282 126.312 44.2125C126.968 43.994 127.598 43.8269 128.189 43.7112C128.832 43.5826 129.539 43.5183 130.298 43.5183C132.188 43.5183 133.705 43.904 134.785 44.6625C135.903 45.4467 136.803 46.4624 137.459 47.6709C138.14 48.9308 138.68 50.3578 139.066 51.8877C139.464 53.4819 139.901 55.0375 140.351 56.5288C140.364 56.6059 140.39 56.6959 140.428 56.8245C140.48 56.9916 140.544 57.1588 140.621 57.3388C140.686 57.4802 140.763 57.673 140.866 57.9173C140.904 58.0201 140.981 58.2515 141.097 58.6244C141.225 59.0101 141.354 59.4472 141.495 59.91C141.624 60.3728 141.753 60.8099 141.855 61.2085C141.907 61.3885 141.933 61.5042 141.945 61.5684L141.907 61.6584L141.997 61.9284C142.665 63.934 143.27 65.901 143.81 67.7909C144.35 69.6936 144.928 71.6863 145.545 73.6919C145.738 74.3218 145.969 74.9775 146.239 75.6074C146.368 75.9031 146.458 76.2117 146.509 76.5074H139.708V76.4945Z" fill="white"/>
<path d="M105.37 76.3274C105.357 76.276 105.331 76.2117 105.318 76.1474C105.267 75.9803 105.215 75.826 105.177 75.6846C105.151 75.5946 105.138 75.556 105.138 75.5303V75.4532L105.1 75.3503C104.084 72.1877 103.043 69.0251 102.027 65.9653C101.011 62.9055 99.9828 59.7172 98.9672 56.4774L98.9543 56.4517L98.9415 56.426C98.8515 56.1946 98.7229 55.7575 98.5687 55.1404C98.4015 54.4847 98.2215 53.8162 98.0158 53.1476C97.7973 52.4534 97.553 51.8363 97.283 51.2963C96.8974 50.5507 96.396 50.1779 95.8046 50.1779C95.3803 50.1779 95.0332 50.3064 94.7889 50.5378C94.6475 50.6792 94.4932 50.8849 94.3261 51.1421C94.1333 51.4763 93.979 51.8235 93.8633 52.1963C93.7733 52.5177 93.6833 52.8134 93.6062 53.0834L92.6419 56.3103C92.4362 57.0559 92.192 57.7759 91.9348 58.4701C91.6649 59.1901 91.4206 59.9229 91.202 60.6557C90.9063 61.517 90.6364 62.3527 90.3921 63.1755C90.1478 63.9726 89.8907 64.8082 89.595 65.6567L89.5822 65.6825L89.415 66.3767V66.3896C89.4022 66.4667 89.3636 66.621 89.2736 66.9038C89.1965 67.1609 89.1065 67.4309 89.0293 67.7009C88.9522 67.958 88.8751 68.2023 88.7979 68.4208C88.7208 68.6265 88.6822 68.768 88.6436 68.8579C88.5922 68.9737 88.5151 69.1922 88.348 69.7193C88.2065 70.1564 88.0523 70.645 87.8851 71.2106C87.7051 71.7763 87.5252 72.3934 87.3195 73.0491C87.1266 73.6919 86.9338 74.2833 86.7409 74.8232C86.5609 75.3503 86.3938 75.8003 86.2395 76.1731C86.2138 76.2374 86.1881 76.2888 86.1753 76.3403H82.3055C81.9841 76.3403 81.6242 76.3274 81.2385 76.3146C80.8399 76.3017 80.4414 76.2888 80.0428 76.276C79.7086 76.2631 79.3872 76.2503 79.1172 76.2374L80.2357 72.5991L80.4028 72.2777L80.4157 72.2134C80.6085 71.5706 80.7628 71.0178 80.8913 70.5935C81.0199 70.1436 81.1613 69.6807 81.3156 69.2051C81.457 68.7422 81.5856 68.3566 81.6884 68.0737V68.0609V68.048C82.3055 66.0424 82.9098 63.9983 83.4883 61.9799C84.054 59.9872 84.6968 57.9687 85.391 55.976C85.4167 55.9117 85.4682 55.8089 85.5582 55.6675C85.7381 55.3975 85.8024 55.1146 85.7767 54.8061L86.9338 51.1549L86.8695 51.0392C86.8823 50.9621 86.9209 50.795 87.0238 50.5121C87.1909 50.0236 87.3966 49.4836 87.628 48.9179C87.8723 48.3523 88.1037 47.8252 88.3222 47.3495C88.5537 46.8481 88.6437 46.6681 88.6822 46.6167C88.9522 46.3081 89.1836 46.051 89.4022 45.8453C89.6336 45.6268 89.8521 45.4339 90.0835 45.2668C90.3021 45.0996 90.5464 44.9325 90.7778 44.7911C91.0221 44.6497 91.3049 44.4697 91.6134 44.2897C91.7549 44.2383 91.8706 44.1611 91.9734 44.0454C92.6291 43.8269 93.259 43.6597 93.8504 43.544C94.4932 43.4155 95.2003 43.3512 95.9588 43.3512C97.8487 43.3512 99.3657 43.7369 100.446 44.4954C101.564 45.2796 102.464 46.2953 103.12 47.5038C103.801 48.7637 104.341 50.1907 104.727 51.7206C105.125 53.3148 105.562 54.8704 106.012 56.3617C106.025 56.4388 106.051 56.5288 106.09 56.6574C106.141 56.8245 106.205 56.9917 106.282 57.1716C106.347 57.3131 106.424 57.5059 106.527 57.7502C106.565 57.853 106.642 58.0844 106.758 58.4573C106.887 58.8429 107.015 59.2801 107.157 59.7429C107.285 60.2057 107.414 60.6428 107.517 61.0414C107.568 61.2214 107.594 61.3371 107.607 61.4013L107.568 61.4913L107.658 61.7613C108.327 63.7669 108.931 65.7339 109.471 67.6238C110.011 69.5265 110.589 71.5192 111.206 73.5248C111.399 74.1547 111.631 74.8104 111.901 75.4403C112.029 75.736 112.119 76.0446 112.171 76.3403H105.37V76.3274Z" fill="white"/>
</svg>
