<svg xmlns="http://www.w3.org/2000/svg" viewBox="0 0 512 512" role="img" aria-labelledby="title">
  <title>EDIO</title>
  <rect width="512" height="512" rx="40" fill="#ff4b0a"/>
  <defs>
    <mask id="edio-mark">
      <rect width="512" height="512" fill="#000"/>
      <circle cx="256" cy="256" r="197" fill="#fff"/>
      <circle cx="256" cy="256" r="128" fill="#000"/>
      <rect x="322" y="226" width="170" height="96" rx="34" fill="#000"/>
    </mask>
  </defs>
  <rect width="512" height="512" fill="#fff" mask="url(#edio-mark)"/>
  <g fill="#fff">
    <circle cx="256" cy="156" r="6.8"/>
    <circle cx="203" cy="181" r="6.8"/>
    <circle cx="256" cy="181" r="6.8"/>
    <circle cx="203" cy="207" r="8.2"/>
    <circle cx="230" cy="207" r="8.2"/>
    <circle cx="256" cy="207" r="8.2"/>
    <circle cx="282" cy="207" r="8.2"/>
    <circle cx="176" cy="231" r="8.2"/>
    <circle cx="203" cy="231" r="8.2"/>
    <circle cx="230" cy="231" r="8.2"/>
    <circle cx="256" cy="231" r="8.2"/>
    <circle cx="282" cy="231" r="8.2"/>
    <circle cx="309" cy="231" r="8.2"/>
    <circle cx="149" cy="255" r="8.2"/>
    <circle cx="176" cy="255" r="8.2"/>
    <circle cx="203" cy="255" r="8.2"/>
    <circle cx="230" cy="255" r="8.2"/>
    <circle cx="256" cy="255" r="8.2"/>
    <circle cx="282" cy="255" r="8.2"/>
    <circle cx="309" cy="255" r="8.2"/>
    <circle cx="176" cy="279" r="8.2"/>
    <circle cx="203" cy="279" r="8.2"/>
    <circle cx="230" cy="279" r="8.2"/>
    <circle cx="256" cy="279" r="8.2"/>
    <circle cx="282" cy="279" r="8.2"/>
    <circle cx="309" cy="279" r="8.2"/>
    <circle cx="203" cy="305" r="7.4"/>
    <circle cx="256" cy="305" r="8.2"/>
    <circle cx="282" cy="305" r="7.4"/>
    <circle cx="203" cy="329" r="6.8"/>
    <circle cx="256" cy="329" r="8.2"/>
    <circle cx="256" cy="354" r="6.8"/>
  </g>
</svg>
